<?xml version="1.0" encoding="UTF-8"?>
<svg width="448px" height="431px" viewBox="0 0 448 431" version="1.1" xmlns="http://www.w3.org/2000/svg" xmlns:xlink="http://www.w3.org/1999/xlink">
    <title>Custom Preset</title>
    <g id="Custom-Preset" stroke="none" stroke-width="1" fill="none" fill-rule="evenodd" fill-opacity="0.02">
        <g id="Union" fill="#090D36">
            <path d="M16.3123803,133.411906 C5.43749208,159.044797 0,186.426518 0,215.556111 C0,246.238835 5.43749208,274.590424 16.3123803,300.612797 C27.5756279,326.635169 43.1111167,349.35558 62.9189619,368.774989 C82.7267974,388.194398 105.4474,403.341979 131.080771,414.216771 C157.103143,425.091563 185.067169,430.528959 214.972848,430.528959 C230.749739,430.528959 245.971186,428.975829 260.63815,425.868608 L448,425.868608 L448,371.106124 L363.417216,371.106124 C364.43409,370.144891 365.443289,369.174064 366.444814,368.192685 C386.641268,348.384754 402.370193,325.469602 413.633507,299.447229 C424.896822,273.425816 430.528959,245.46179 430.528959,215.556111 C430.528959,186.426518 424.896822,159.044797 413.633507,133.411906 C402.370193,107.389437 386.641268,84.474573 366.444814,64.6667375 C346.636882,44.4704754 323.72173,28.7407829 297.700317,17.4774777 C272.066467,5.8258227 244.490964,0 214.972848,0 C185.067169,0 157.103143,5.8258227 131.080771,17.4774777 C105.4474,28.7407829 82.7267974,44.4704754 62.9189619,64.6667375 C43.1111167,84.474573 27.5756279,107.389437 16.3123803,133.411906 Z M70.4924642,278.47469 C62.3362741,259.055281 58.2583229,238.276522 58.2583229,216.138415 C58.2583229,194.388831 62.1422047,173.803854 69.9099683,154.384445 C77.6777319,134.965036 88.7466895,117.875803 103.117129,103.117225 C117.487472,88.3584548 134.187991,76.9009747 153.218878,68.7447846 C172.250724,60.2002638 192.834741,55.9279555 214.972848,55.9279555 C236.722433,55.9279555 257.113627,60.2002638 276.144514,68.7447846 C295.1754,76.9009747 311.876111,88.3584548 326.246647,103.117225 C340.617182,117.487281 351.879537,134.382732 360.036591,153.802141 C368.192685,173.22155 372.270732,193.805567 372.270732,215.556111 C372.270732,238.082741 368.192685,259.055281 360.036591,278.47469 C351.879537,297.505576 340.810964,314.401028 326.828951,329.159126 C312.846938,343.918184 296.340968,355.375281 277.309122,363.531375 C258.278236,371.688428 237.888,375.766475 216.138415,375.766475 C194.000308,375.766475 173.415332,371.688428 154.384445,363.531375 C135.353559,355.375281 118.652656,343.918184 104.282217,329.159126 C89.9118732,314.401028 78.6485585,297.505576 70.4924642,278.47469 Z" id="Shape"></path>
        </g>
    </g>
</svg>