<?xml version="1.0" encoding="UTF-8"?>
<svg width="1048px" height="1008px" viewBox="0 0 1048 1008" version="1.1" xmlns="http://www.w3.org/2000/svg" xmlns:xlink="http://www.w3.org/1999/xlink">
    <title>Custom Preset</title>
    <g id="Custom-Preset" stroke="none" stroke-width="1" fill="none" fill-rule="evenodd" fill-opacity="0.5">
        <g id="home-bg" fill="#F3F7FA">
            <path d="M38.159265,312.087868 C12.7197998,372.052488 0,436.105364 0,504.246497 C0,576.022489 12.7197998,642.346192 38.159265,703.219527 C64.5072337,764.091901 100.849203,817.24308 147.184924,862.670181 C193.521701,908.098244 246.671919,943.531402 306.636539,968.970618 C367.508913,994.408873 432.924862,1007.12704 502.883424,1007.12704 C539.789162,1007.12704 575.397148,1003.49602 609.708341,996.224381 L1048,996.224381 L1048,868.123432 L850.136447,868.123432 C852.51582,865.875659 854.876942,863.603872 857.218852,861.307109 C904.463384,814.971292 941.259615,761.366717 967.607545,700.493382 C993.957397,639.621008 1007.12704,574.20506 1007.12704,504.246497 C1007.12704,436.105364 993.957397,372.052488 967.607545,312.087868 C941.259615,251.214533 904.463384,197.609958 857.218852,151.274141 C810.883036,104.029225 757.27846,67.2328022 696.405126,40.8847758 C636.440506,13.6282746 571.933272,0 502.883424,0 C432.924862,0 367.508913,13.6282746 306.636539,40.8847758 C246.671919,67.2328022 193.521701,104.029225 147.184924,151.274141 C100.849203,197.609958 64.5072337,251.214533 38.159265,312.087868 Z M164.901984,651.432381 C145.822812,606.004319 136.283226,557.396715 136.283226,505.609569 C136.283226,454.730178 145.368455,406.576931 163.538911,361.14983 C181.710328,315.721767 207.603901,275.745995 241.22059,241.22059 C274.836319,206.695186 313.904337,179.892898 358.423685,160.813727 C402.943032,140.825841 451.096279,130.831897 502.883424,130.831897 C553.762816,130.831897 601.460744,140.825841 645.980092,160.813727 C690.499439,179.892898 729.567457,206.695186 763.184147,241.22059 C796.799875,274.83728 823.147806,314.358695 842.226977,359.786757 C861.307109,405.213859 870.846695,453.367105 870.846695,504.246497 C870.846695,556.942357 861.307109,606.004319 842.226977,651.432381 C823.147806,695.950768 797.254233,735.473144 764.546258,769.997588 C731.838284,804.522992 693.225584,831.32528 648.706236,850.404451 C604.186889,869.484583 556.488,879.024169 505.608609,879.024169 C453.821463,879.024169 405.668216,869.484583 361.148869,850.404451 C316.630482,831.32528 277.562464,804.522992 243.945775,769.997588 C210.329085,735.473144 183.981155,695.950768 164.901984,651.432381 Z" id="Shape"></path>
        </g>
    </g>
</svg>