<?xml version="1.0" encoding="UTF-8"?>
<svg width="50px" height="50px" viewBox="0 0 50 50" version="1.1" xmlns="http://www.w3.org/2000/svg" xmlns:xlink="http://www.w3.org/1999/xlink">
    <title>Custom Preset</title>
    <g id="Custom-Preset" stroke="none" stroke-width="1" fill="none" fill-rule="evenodd">
        <g id="logo_icon_white" fill-rule="nonzero">
            <rect id="Rectangle" fill="#FFFFFF" x="0" y="0" width="50" height="50" rx="16"></rect>
            <polygon id="Path" fill="#14AFF1" points="40.549 30.9028 35.1363 30.9028 32.3208 32.9544 40.549 32.9544"></polygon>
            <path d="M18.597,19.9901 C18.0586,19.7136 17.4694,19.4735 16.8291,19.2698 C16.1889,19.0661 15.5633,18.9643 14.9522,18.9643 C14.1082,18.9643 13.4316,19.1607 12.9224,19.5536 C12.4277,19.9464 12.1803,20.4702 12.1803,21.125 C12.1803,21.6197 12.3404,22.0417 12.6605,22.3909 C12.9806,22.7255 13.4025,23.0165 13.9264,23.2639 C14.4502,23.5113 14.9958,23.7441 15.5633,23.9623 C16.058,24.1515 16.5454,24.3624 17.0256,24.5953 C17.5057,24.8281 17.935,25.1191 18.3133,25.4683 C18.7061,25.8175 19.0117,26.2467 19.2299,26.756 C19.4627,27.2652 19.5791,27.8982 19.5791,28.6548 C19.5791,29.4842 19.3682,30.2408 18.9462,30.9246 C18.5388,31.6085 17.9495,32.1469 17.1783,32.5397 C16.4072,32.9326 15.4905,33.129 14.4283,33.129 C13.7299,33.129 13.0606,33.049 12.4204,32.8889 C11.7947,32.7289 11.2127,32.5252 10.6744,32.2778 C10.136,32.0159 9.6558,31.7467 9.2339,31.4703 L10.1724,29.8115 C10.5216,30.0589 10.9217,30.299 11.3728,30.5318 C11.8238,30.75 12.2967,30.9319 12.7914,31.0774 C13.2861,31.2084 13.7663,31.2738 14.2319,31.2738 C14.7266,31.2738 15.2141,31.1865 15.6942,31.0119 C16.1889,30.8228 16.5963,30.539 16.9164,30.1607 C17.2365,29.7824 17.3966,29.2804 17.3966,28.6548 C17.3966,28.1164 17.2511,27.6726 16.9601,27.3234 C16.6836,26.9597 16.3126,26.6541 15.847,26.4068 C15.3814,26.1449 14.8867,25.9121 14.3629,25.7084 C13.8682,25.5192 13.3662,25.3155 12.8569,25.0972 C12.3476,24.8644 11.8748,24.588 11.4383,24.2679 C11.0017,23.9332 10.6525,23.5258 10.3906,23.0456 C10.1287,22.5655 9.9978,21.9835 9.9978,21.2996 C9.9978,20.4702 10.1942,19.75 10.5871,19.1389 C10.9945,18.5132 11.5474,18.0258 12.2458,17.6766 C12.9442,17.3128 13.7445,17.1164 14.6466,17.0873 C15.6651,17.0873 16.56,17.211 17.3311,17.4583 C18.1168,17.7057 18.808,18.0112 19.4045,18.375 L18.597,19.9901 Z" id="Path" fill="#1B1C1E"></path>
            <path d="M23.7654,25.0754 C23.7654,23.9841 23.9691,22.9583 24.3765,21.998 C24.7985,21.0232 25.3805,20.1647 26.1225,19.4226 C26.8646,18.666 27.7158,18.0767 28.6761,17.6548 C29.651,17.2183 30.6986,17 31.819,17 C32.9248,17 33.9579,17.2183 34.9182,17.6548 C35.8931,18.0767 36.7515,18.666 37.4936,19.4226 C38.2502,20.1647 38.8395,21.0232 39.2615,21.998 C39.6834,22.9583 39.8944,23.9841 39.8944,25.0754 C39.8944,26.1958 39.6834,27.2434 39.2615,28.2183 C38.8395,29.1931 38.2502,30.0516 37.4936,30.7937 C36.7515,31.5212 35.8931,32.0959 34.9182,32.5179 C33.9579,32.9253 32.9248,33.129 31.819,33.129 C30.6986,33.129 29.651,32.9253 28.6761,32.5179 C27.7158,32.1105 26.8646,31.543 26.1225,30.8155 C25.3805,30.088 24.7985,29.2368 24.3765,28.2619 C23.9691,27.2871 23.7654,26.2249 23.7654,25.0754 Z M25.9479,25.0972 C25.9479,25.9266 26.1007,26.705 26.4063,27.4326 C26.7118,28.1455 27.1338,28.7785 27.6721,29.3314 C28.2105,29.8843 28.8362,30.3135 29.5491,30.6191 C30.2621,30.9246 31.0333,31.0774 31.8626,31.0774 C32.6774,31.0774 33.4413,30.9246 34.1543,30.6191 C34.8673,30.3135 35.4857,29.8843 36.0095,29.3314 C36.5333,28.7785 36.948,28.1455 37.2535,27.4326 C37.5591,26.705 37.7119,25.9193 37.7119,25.0754 C37.7119,24.2606 37.5591,23.4894 37.2535,22.7619 C36.948,22.0344 36.526,21.4015 35.9876,20.8631 C35.4493,20.3102 34.8236,19.881 34.1107,19.5754 C33.3977,19.2553 32.6338,19.0952 31.819,19.0952 C30.9896,19.0952 30.2184,19.2553 29.5055,19.5754 C28.7925,19.881 28.1669,20.3102 27.6285,20.8631 C27.0901,21.416 26.6755,22.0562 26.3845,22.7837 C26.0934,23.5113 25.9479,24.2824 25.9479,25.0972 Z" id="Shape" fill="#1B1C1E"></path>
        </g>
    </g>
</svg>